# xmcd CD database file
#
# Track frame offsets:
#	150
#	13748
#	27090
#	39843
#	53943
#	65941
#	80805
#	95006
#	108459
#	121744
#	136213
#	151526
#
# Disc length: 2207 seconds
#
# Revision: 1
# Processed by: cddbd v1.5.1PL0 Copyright (c) Steve Scherf et al.
# Submitted via: CDex 1.51
#
DISCID=97089d0c
DTITLE=George Shearing - JazzPiano-6
DYEAR=2003
DGENRE=Jazz
TTITLE0=When Darkness Falls
TTITLE1=Have You Met miss Jones
TTITLE2=How High The Moon
TTITLE3=Sweet And Lovely
TTITLE4=Bop's Your Uncle
TTITLE5=September In The Rain
TTITLE6=East Of The Sun (West of The Moon)
TTITLE7=Conception
TTITLE8=Pick Yourself Up
TTITLE9=Summertime
TTITLE10=Lonely Moments
TTITLE11=Sophisticated Lady
EXTD=YEAR: 2003
EXTT0=
EXTT1=
EXTT2=
EXTT3=
EXTT4=
EXTT5=
EXTT6=
EXTT7=
EXTT8=
EXTT9=
EXTT10=
EXTT11=
PLAYORDER=
